<?xml version="1.0" encoding="utf-8"?>
<!-- Generator: Adobe Illustrator 19.0.0, SVG Export Plug-In . SVG Version: 6.00 Build 0)  -->
<svg version="1.1" id="Layer_1" xmlns="http://www.w3.org/2000/svg" xmlns:xlink="http://www.w3.org/1999/xlink" x="0px" y="0px"
	 viewBox="0 0 612 152.6" style="enable-background:new 0 0 612 152.6;" xml:space="preserve">
<style type="text/css">
	.st0{fill:#C72128;}
	.st1{fill:#E8A733;}
	.st2{fill:#E3992A;}
	.st3{fill:#898989;}
</style>
<path id="XMLID_124_" class="st0" d="M14.5,138.4c0,0-5.5-6.8,0.1-26.4c0,0,8.1-21.7,10.2-25.7c0,0,9.2-22.2-6.3-40.9
	c0,0,35.4,18.2,80.3-27.8c0,0-35.4,49.4-47.8,75.7c0,0-19.4,35.6-9.2,41.9L14.5,138.4z"/>
<path id="XMLID_123_" class="st0" d="M123.5,42.1c-6.3-7.5-14.8-12.6-25.3-15.1c0,0-0.1,0.1-0.1,0.1c9.4,2.7,17,7.5,22.8,14.4
	c9.6,11.4,14.4,24.6,14.4,39.6c0,17.1-5.1,31.1-15.4,41.8c-10.3,10.7-23.6,16.1-40,16.1H35.9v0.6h46.5c16.4,0,29.8-5.4,40-16.1
	c10.3-10.7,15.4-24.7,15.4-41.8C137.9,66.8,133.1,53.6,123.5,42.1z"/>
<circle id="XMLID_122_" class="st0" cx="48.6" cy="16.3" r="11.3"/>
<path id="XMLID_121_" class="st1" d="M90,22.5c-4.8-1-10-1.5-15.7-1.5h-13c-1.7,5.4-6.7,9.4-12.7,9.4c-6,0-11-3.9-12.7-9.4h-6v24.8
	C42.8,47.3,64.5,45,90,22.5z"/>
<path id="XMLID_120_" class="st2" d="M77.7,113.6h-9.2V68.3c-5.9,9.6-11.4,19-14.9,26.5c0,0-19.4,35.6-9.2,41.9l-11,1.3v2h46.5
	c0.1,0,0.2,0,0.3,0l-0.1-26.6C79.4,113.6,78.6,113.6,77.7,113.6z"/>
<path id="XMLID_119_" class="st1" d="M79.4,51.5c0.2,0,0.4,0.1,0.7,0.1l0-1.1C79.8,50.8,79.6,51.1,79.4,51.5z"/>
<path id="XMLID_118_" class="st1" d="M135.3,82.1c0-15-4.8-28.2-14.4-39.6c-6.3-7.5-14.8-12.6-25.3-15.1c-4,5.7-9.7,14-15.7,23.1
	l0,1.1c5.6,0.6,10,3.6,13.1,8.9c3.6,6,5.3,13.2,5.3,21.6c0,9.7-2,17.4-6,23.1c-3.4,4.8-7.5,7.6-12.3,8.3l0.1,26.6
	c16.3-0.1,29.5-5.4,39.7-16.1C130.2,113.2,135.3,99.3,135.3,82.1z"/>
<path id="XMLID_117_" class="st0" d="M82.5,52.4c-0.5-0.2-1-0.3-1.4-0.4c0,0.1-0.1,0.1-0.1,0.2C81.5,52.2,82,52.3,82.5,52.4z"/>
<g id="XMLID_88_">
	<path id="XMLID_89_" d="M156,52.9c-1.1,0-2.1-0.2-3.1-0.6c-1-0.4-1.8-1-2.5-1.7c-0.7-0.7-1.3-1.6-1.7-2.5c-0.4-0.9-0.6-2-0.6-3.1
		c0-1.1,0.2-2.2,0.6-3.1c0.4-0.9,1-1.8,1.7-2.5c0.7-0.7,1.6-1.3,2.5-1.7c1-0.4,2-0.6,3.1-0.6c2.2,0,4.1,0.8,5.7,2.3
		c1.6,1.5,2.4,3.4,2.4,5.6c0,2.2-0.8,4.1-2.4,5.6C160.1,52.1,158.2,52.9,156,52.9z M149.9,105.3V59.1h12.4v46.2H149.9z"/>
	<path id="XMLID_93_" d="M170.4,37.8h22.8c5.3,0,10.2,0.8,14.4,2.5c4.3,1.6,7.9,3.9,10.9,6.9c3,3,5.3,6.6,6.9,10.7s2.4,8.7,2.4,13.7
		c0,5-0.8,9.6-2.4,13.8c-1.6,4.1-3.9,7.7-6.9,10.7c-3,3-6.7,5.2-10.9,6.9c-4.3,1.6-9.1,2.5-14.4,2.5h-22.8V37.8z M192.6,93.3
		c3.7,0,7-0.5,9.8-1.6c2.8-1,5.2-2.5,7.1-4.4c1.9-1.9,3.3-4.2,4.2-6.8c0.9-2.7,1.4-5.6,1.4-8.9c0-3.3-0.5-6.2-1.4-8.9
		c-0.9-2.7-2.4-5-4.2-6.8c-1.9-1.9-4.2-3.3-7.1-4.4c-2.8-1-6.1-1.6-9.8-1.6h-9.5v43.4H192.6z"/>
	<path id="XMLID_99_" d="M230.1,59.1h11.6v6.4h0.8c0.6-1.1,1.3-2.2,2.3-3.1c0.9-0.9,2-1.8,3.2-2.5c1.2-0.7,2.4-1.3,3.8-1.7
		c1.4-0.4,2.7-0.6,4-0.6c1.6,0,3,0.2,4.2,0.5c1.2,0.3,2.2,0.8,3,1.4l-3.3,11c-0.8-0.4-1.6-0.7-2.5-0.9c-0.9-0.2-2-0.3-3.3-0.3
		c-1.7,0-3.2,0.3-4.6,1c-1.4,0.7-2.6,1.6-3.5,2.8c-1,1.2-1.7,2.6-2.3,4.2c-0.5,1.6-0.8,3.4-0.8,5.3v22.7h-12.4V59.1z"/>
	<path id="XMLID_101_" d="M304.6,94.2c-2.1,3.8-5,6.8-8.6,9.1c-3.6,2.3-8,3.5-13.2,3.5c-3.5,0-6.8-0.6-9.8-1.8
		c-3-1.2-5.6-2.9-7.8-5.1c-2.2-2.2-3.9-4.8-5.1-7.8c-1.2-3-1.8-6.3-1.8-9.9c0-3.3,0.6-6.5,1.8-9.5c1.2-3,2.9-5.6,5-7.8
		c2.1-2.2,4.7-4,7.6-5.3c2.9-1.3,6.1-2,9.7-2c3.7,0,7,0.6,9.9,1.8c2.9,1.2,5.3,2.9,7.3,5.1c1.9,2.2,3.4,4.7,4.4,7.7
		c1,3,1.5,6.2,1.5,9.6c0,0.4,0,0.8,0,1.1c-0.1,0.4-0.1,0.7-0.1,1c-0.1,0.3-0.1,0.7-0.1,1h-34.8c0.3,1.9,0.8,3.5,1.6,4.9
		c0.8,1.4,1.8,2.5,2.9,3.4c1.2,0.9,2.4,1.6,3.8,2c1.4,0.4,2.8,0.6,4.2,0.6c2.8,0,5.2-0.6,7-1.9c1.9-1.3,3.3-2.9,4.4-4.9L304.6,94.2z
		 M293.4,76.3c-0.1-0.8-0.3-1.7-0.8-2.7c-0.5-1-1.2-1.9-2.1-2.8c-0.9-0.9-2-1.6-3.4-2.2s-3-0.8-4.9-0.8c-2.6,0-5,0.8-7,2.3
		c-2,1.5-3.4,3.6-4.2,6.3H293.4z"/>
	<path id="XMLID_104_" d="M337.5,100.4h-0.8c-1.4,1.8-3.2,3.3-5.2,4.5c-2,1.3-4.7,1.9-7.9,1.9c-2.4,0-4.6-0.4-6.7-1.2
		c-2.1-0.8-3.9-1.9-5.5-3.3c-1.6-1.4-2.8-3-3.7-5c-0.9-1.9-1.3-4.1-1.3-6.4c0-2.4,0.5-4.5,1.4-6.5c0.9-1.9,2.3-3.6,4-4.9
		c1.7-1.4,3.7-2.4,6-3.2c2.3-0.7,4.8-1.1,7.5-1.1c3,0,5.5,0.2,7.4,0.7c1.9,0.5,3.6,1,4.8,1.5v-1.4c0-2.5-1-4.5-2.9-6.1
		c-1.9-1.6-4.4-2.4-7.3-2.4c-4.3,0-7.9,1.8-10.8,5.4l-9-6.1c4.9-6.2,11.6-9.2,20.1-9.2c7.2,0,12.6,1.7,16.4,5
		c3.8,3.4,5.7,8.3,5.7,14.9v27.7h-12.2V100.4z M337.5,86.6c-1.4-0.7-2.9-1.2-4.5-1.6c-1.5-0.4-3.2-0.6-5-0.6c-3,0-5.2,0.6-6.8,1.9
		c-1.6,1.3-2.4,2.9-2.4,4.8s0.8,3.4,2.3,4.5c1.5,1.1,3.3,1.7,5.3,1.7c1.6,0,3.1-0.3,4.5-0.9c1.4-0.6,2.6-1.4,3.5-2.4
		c1-1,1.7-2.1,2.3-3.4C337.3,89.3,337.5,88,337.5,86.6z"/>
	<path id="XMLID_107_" d="M354.8,59.1h11.6v6h0.8c1.4-2.3,3.4-4.1,5.9-5.5c2.5-1.4,5.2-2.1,8.2-2.1c3.5,0,6.5,0.8,8.9,2.5
		c2.4,1.6,4.1,3.6,5.1,6c1.4-2.3,3.5-4.3,6.1-6c2.6-1.7,5.8-2.5,9.6-2.5c2.8,0,5.3,0.5,7.4,1.4c2.1,0.9,3.8,2.2,5.1,3.8
		c1.4,1.6,2.4,3.6,3.1,5.9c0.7,2.3,1,4.8,1,7.5v29.1h-12.4V78.5c0-6.3-2.6-9.4-7.7-9.4c-1.6,0-3.1,0.4-4.3,1.1
		c-1.3,0.7-2.3,1.7-3.2,2.9c-0.8,1.2-1.5,2.7-2,4.4c-0.5,1.7-0.7,3.5-0.7,5.5v22.4H385V78.5c0-6.3-2.7-9.4-8.1-9.4
		c-1.6,0-3,0.4-4.1,1.1c-1.2,0.7-2.2,1.7-3,2.9c-0.8,1.2-1.4,2.7-1.9,4.4c-0.4,1.7-0.7,3.5-0.7,5.5v22.4h-12.4V59.1z"/>
	<path id="XMLID_109_" d="M434.6,105.3V37.8h23.8c3.2,0,6.2,0.5,9,1.6c2.8,1,5.2,2.5,7.3,4.4c2.1,1.9,3.7,4.1,4.9,6.7
		c1.2,2.6,1.8,5.5,1.8,8.6c0,3.2-0.6,6.1-1.8,8.7c-1.2,2.6-2.8,4.9-4.9,6.7c-2.1,1.9-4.5,3.3-7.3,4.4c-2.8,1-5.8,1.6-9,1.6h-11v24.8
		H434.6z M458.5,68.5c3.3,0,5.8-0.9,7.5-2.8c1.7-1.9,2.5-4.1,2.5-6.5c0-1.2-0.2-2.4-0.6-3.5c-0.4-1.1-1-2.1-1.9-3
		c-0.8-0.8-1.9-1.5-3.2-2c-1.3-0.5-2.7-0.8-4.4-0.8h-11.2v18.6H458.5z"/>
	<path id="XMLID_112_" d="M502.7,57.6c3.6,0,6.9,0.6,9.9,1.8c3,1.2,5.6,2.9,7.7,5.1c2.2,2.2,3.9,4.8,5.1,7.8c1.2,3,1.8,6.3,1.8,9.9
		s-0.6,6.9-1.8,9.9s-2.9,5.6-5.1,7.8c-2.2,2.2-4.7,3.9-7.7,5.1c-3,1.2-6.3,1.8-9.9,1.8s-6.9-0.6-9.9-1.8c-3-1.2-5.6-2.9-7.7-5.1
		c-2.2-2.2-3.9-4.8-5.1-7.8s-1.8-6.3-1.8-9.9s0.6-6.9,1.8-9.9c1.2-3,2.9-5.6,5.1-7.8c2.2-2.2,4.7-3.9,7.7-5.1
		C495.9,58.2,499.1,57.6,502.7,57.6z M502.7,95.4c1.6,0,3.1-0.3,4.6-0.9c1.5-0.6,2.8-1.5,3.9-2.6c1.1-1.1,2-2.5,2.7-4.1
		c0.7-1.6,1-3.5,1-5.6s-0.3-3.9-1-5.6c-0.7-1.6-1.6-3-2.7-4.1c-1.1-1.1-2.4-2-3.9-2.6c-1.5-0.6-3-0.9-4.6-0.9
		c-1.6,0-3.2,0.3-4.6,0.9c-1.4,0.6-2.7,1.5-3.9,2.6c-1.1,1.1-2,2.5-2.7,4.1c-0.7,1.6-1,3.5-1,5.6s0.3,3.9,1,5.6
		c0.7,1.6,1.6,3,2.7,4.1c1.1,1.1,2.4,2,3.9,2.6C499.6,95.1,501.1,95.4,502.7,95.4z"/>
	<path id="XMLID_126_" d="M548.3,106.8c-3,0-5.7-0.4-8.1-1.1c-2.4-0.8-4.4-1.7-6.1-3c-1.7-1.2-3.2-2.6-4.4-4.2s-2.1-3.2-2.7-4.9
		l11-4.7c1.1,2.4,2.5,4.2,4.3,5.3c1.8,1.2,3.8,1.7,6,1.7c2.3,0,4.1-0.4,5.4-1.2c1.3-0.8,2-1.8,2-2.9c0-1.3-0.6-2.3-1.6-3.1
		c-1.1-0.8-3-1.5-5.7-2.1l-6.5-1.4c-1.4-0.3-2.9-0.8-4.5-1.5c-1.5-0.7-2.9-1.6-4.2-2.6c-1.3-1.1-2.3-2.4-3.1-3.9s-1.2-3.3-1.2-5.3
		c0-2.3,0.5-4.3,1.5-6c1-1.8,2.3-3.3,4-4.5c1.7-1.2,3.7-2.2,6-2.8c2.3-0.7,4.8-1,7.4-1c4.4,0,8.3,0.9,11.8,2.6
		c3.5,1.7,6,4.5,7.6,8.2l-10.7,4.3c-0.9-1.8-2.2-3.1-3.9-4c-1.7-0.8-3.4-1.2-5.1-1.2c-1.8,0-3.3,0.4-4.6,1.1c-1.3,0.7-2,1.7-2,2.8
		c0,1.1,0.5,1.9,1.6,2.5c1.1,0.6,2.6,1.2,4.5,1.7l7.1,1.7c4.7,1.1,8.2,2.9,10.5,5.4c2.3,2.5,3.4,5.4,3.4,8.8c0,2-0.5,3.9-1.4,5.8
		c-0.9,1.8-2.3,3.4-4,4.9c-1.7,1.4-3.8,2.5-6.2,3.3C553.9,106.4,551.2,106.8,548.3,106.8z"/>
	<path id="XMLID_239_" d="M575.4,69.7h-8.1V59.1h8.1V45h12.3v14.1h11.3v10.6h-11.3v18.5c0,1.1,0.1,2.1,0.3,3.1
		c0.2,0.9,0.6,1.7,1.3,2.4c0.9,1,2.1,1.6,3.8,1.6c1.1,0,1.9-0.1,2.5-0.3c0.6-0.2,1.2-0.5,1.8-0.9l3.5,10.8c-1.4,0.7-3,1.2-4.7,1.6
		c-1.7,0.3-3.5,0.5-5.5,0.5c-2.3,0-4.4-0.4-6.3-1.1c-1.9-0.7-3.4-1.7-4.7-3c-3-2.9-4.4-7-4.4-12.3V69.7z"/>
</g>
<g id="XMLID_4_">
	<path id="XMLID_6_" class="st3" d="M507.7,144.2c-1.1,0-2.1-0.4-2.9-1.2c-0.8-0.8-1.2-1.7-1.2-2.8c0-1.1,0.4-2,1.2-2.8
		c0.8-0.8,1.8-1.2,2.9-1.2c1.1,0,2.1,0.4,2.9,1.2c0.8,0.8,1.2,1.7,1.2,2.8c0,1.1-0.4,2.1-1.2,2.8
		C509.8,143.8,508.8,144.2,507.7,144.2z"/>
	<path id="XMLID_8_" class="st3" d="M536.6,138.2c-1,2-2.4,3.6-4.3,4.9c-1.8,1.3-4.1,1.9-6.9,1.9c-1.8,0-3.5-0.3-5-0.9
		c-1.5-0.6-2.8-1.5-3.9-2.6c-1.1-1.1-2-2.4-2.6-3.9c-0.6-1.5-0.9-3.2-0.9-5c0-1.8,0.3-3.5,0.9-5c0.6-1.5,1.5-2.8,2.6-3.9
		c1.1-1.1,2.4-2,3.9-2.6c1.5-0.6,3.2-0.9,5-0.9c2.7,0,5,0.6,6.8,1.9c1.8,1.2,3.2,2.9,4.1,4.8l-5.7,2.4c-0.5-1.1-1.2-1.9-2.1-2.5
		c-0.8-0.6-1.9-0.8-3.2-0.8c-0.8,0-1.6,0.2-2.3,0.5c-0.7,0.3-1.4,0.8-1.9,1.3c-0.6,0.6-1,1.3-1.3,2.1c-0.3,0.8-0.5,1.8-0.5,2.8
		c0,1,0.2,1.9,0.5,2.8c0.3,0.8,0.8,1.5,1.3,2.1c0.6,0.6,1.2,1,1.9,1.3c0.7,0.3,1.5,0.5,2.3,0.5c1.3,0,2.4-0.3,3.3-0.9
		c0.9-0.6,1.6-1.4,2.2-2.6L536.6,138.2z"/>
	<path id="XMLID_10_" class="st3" d="M548.9,120c1.8,0,3.5,0.3,5,0.9c1.5,0.6,2.8,1.5,3.9,2.6c1.1,1.1,2,2.4,2.6,3.9
		c0.6,1.5,0.9,3.2,0.9,5c0,1.8-0.3,3.5-0.9,5c-0.6,1.5-1.5,2.8-2.6,3.9c-1.1,1.1-2.4,2-3.9,2.6c-1.5,0.6-3.2,0.9-5,0.9
		c-1.8,0-3.5-0.3-5-0.9c-1.5-0.6-2.8-1.5-3.9-2.6c-1.1-1.1-2-2.4-2.6-3.9c-0.6-1.5-0.9-3.2-0.9-5c0-1.8,0.3-3.5,0.9-5
		c0.6-1.5,1.5-2.8,2.6-3.9c1.1-1.1,2.4-2,3.9-2.6C545.4,120.3,547.1,120,548.9,120z M548.9,139.2c0.8,0,1.6-0.1,2.3-0.5
		c0.7-0.3,1.4-0.7,2-1.3c0.6-0.6,1-1.3,1.4-2.1c0.3-0.8,0.5-1.8,0.5-2.8c0-1.1-0.2-2-0.5-2.8c-0.3-0.8-0.8-1.5-1.4-2.1
		c-0.6-0.6-1.2-1-2-1.3c-0.8-0.3-1.5-0.5-2.3-0.5c-0.8,0-1.6,0.2-2.3,0.5c-0.7,0.3-1.4,0.7-2,1.3c-0.6,0.6-1,1.3-1.4,2.1
		c-0.3,0.8-0.5,1.8-0.5,2.8c0,1.1,0.2,2,0.5,2.8s0.8,1.5,1.4,2.1c0.6,0.6,1.2,1,2,1.3C547.3,139,548.1,139.2,548.9,139.2z"/>
	<path id="XMLID_28_" class="st3" d="M562.5,120.7h5.9v3.1h0.4c0.7-1.1,1.7-2.1,3-2.8c1.3-0.7,2.7-1.1,4.2-1.1
		c1.8,0,3.3,0.4,4.5,1.2c1.2,0.8,2.1,1.9,2.6,3.1c0.7-1.2,1.8-2.2,3.1-3c1.3-0.8,3-1.3,4.9-1.3c1.4,0,2.7,0.2,3.7,0.7
		c1.1,0.5,1.9,1.1,2.6,1.9c0.7,0.8,1.2,1.8,1.6,3c0.3,1.2,0.5,2.4,0.5,3.8v14.8h-6.3v-13.6c0-3.2-1.3-4.8-3.9-4.8
		c-0.8,0-1.6,0.2-2.2,0.6c-0.6,0.4-1.2,0.9-1.6,1.5s-0.8,1.4-1,2.2c-0.2,0.9-0.4,1.8-0.4,2.8v11.4h-6.3v-13.6c0-3.2-1.4-4.8-4.1-4.8
		c-0.8,0-1.5,0.2-2.1,0.6c-0.6,0.4-1.1,0.9-1.5,1.5c-0.4,0.6-0.7,1.4-1,2.2c-0.2,0.9-0.3,1.8-0.3,2.8v11.4h-6.3V120.7z"/>
</g>
</svg>
